<svg version="1.1" xmlns="http://www.w3.org/2000/svg" xmlns:xlink="http://www.w3.org/1999/xlink" width="490.7060546875" height="356"><defs/><g><g transform="translate(-326,-94) scale(1,1)"><rect fill="#C0C0C0" stroke="none" x="415" y="143" width="184.77783203125" height="120" opacity="0.2"/></g><g transform="translate(-326,-94) scale(1,1)"><rect fill="#ffffff" stroke="none" x="408" y="136" width="184.77783203125" height="120"/></g><g transform="translate(-326,-94) scale(1,1)"><path fill="none" stroke="#000000" d="M 408 136 L 592.77783203125 136 L 592.77783203125 256 L 408 256 L 408 136 Z Z" stroke-miterlimit="10"/></g><g transform="translate(-326,-94) scale(1,1)"><path fill="none" stroke="#000000" d="M 408 159 L 592.77783203125 159" stroke-miterlimit="10"/></g><g transform="translate(-326,-94) scale(1,1)"><path fill="none" stroke="#000000" d="M 448.3291015625 159 L 448.3291015625 256" stroke-miterlimit="10"/></g><g transform="translate(-326,-94) scale(1,1)"><path fill="none" stroke="#000000" d="M 519.74267578125 159 L 519.74267578125 256" stroke-miterlimit="10"/></g><g transform="translate(-326,-94) scale(1,1)"><g><path fill="none" stroke="none"/><text fill="#000000" stroke="none" font-family="Arial" font-size="13px" font-style="normal" font-weight="bold" text-decoration="none" x="486.665283203125" y="153.5">User</text></g></g><g transform="translate(-326,-94) scale(1,1)"><g><path fill="none" stroke="none"/><text fill="#000000" stroke="none" font-family="Arial" font-size="13px" font-style="normal" font-weight="normal" text-decoration="none" x="413" y="177">PK</text></g></g><g transform="translate(-326,-94) scale(1,1)"><g><path fill="none" stroke="none"/><text fill="#000000" stroke="none" font-family="Arial" font-size="13px" font-style="normal" font-weight="normal" text-decoration="none" x="453.3291015625" y="177">ID</text></g></g><g transform="translate(-326,-94) scale(1,1)"><g><path fill="none" stroke="none"/><text fill="#000000" stroke="none" font-family="Arial" font-size="13px" font-style="normal" font-weight="normal" text-decoration="none" x="524.74267578125" y="177">BIGINT</text></g></g><g transform="translate(-326,-94) scale(1,1)"><g><path fill="none" stroke="none"/><text fill="#000000" stroke="none" font-family="Arial" font-size="13px" font-style="normal" font-weight="normal" text-decoration="none" x="413" y="176.5"></text></g></g><g transform="translate(-326,-94) scale(1,1)"><g><path fill="none" stroke="none"/><text fill="#000000" stroke="none" font-family="Arial" font-size="13px" font-style="normal" font-weight="normal" text-decoration="none" x="413" y="192">U</text></g></g><g transform="translate(-326,-94) scale(1,1)"><g><path fill="none" stroke="none"/><text fill="#000000" stroke="none" font-family="Arial" font-size="13px" font-style="normal" font-weight="normal" text-decoration="none" x="453.3291015625" y="192">Email</text></g></g><g transform="translate(-326,-94) scale(1,1)"><g><path fill="none" stroke="none"/><text fill="#000000" stroke="none" font-family="Arial" font-size="13px" font-style="normal" font-weight="normal" text-decoration="none" x="524.74267578125" y="192">VARCHAR</text></g></g><g transform="translate(-326,-94) scale(1,1)"><g><path fill="none" stroke="none"/><text fill="#000000" stroke="none" font-family="Arial" font-size="13px" font-style="normal" font-weight="normal" text-decoration="none" x="413" y="191.5"></text></g></g><g transform="translate(-326,-94) scale(1,1)"><g><path fill="none" stroke="none"/><text fill="#000000" stroke="none" font-family="Arial" font-size="13px" font-style="normal" font-weight="normal" text-decoration="none" x="413" y="207"></text></g></g><g transform="translate(-326,-94) scale(1,1)"><g><path fill="none" stroke="none"/><text fill="#000000" stroke="none" font-family="Arial" font-size="13px" font-style="normal" font-weight="normal" text-decoration="none" x="453.3291015625" y="207">Password</text></g></g><g transform="translate(-326,-94) scale(1,1)"><g><path fill="none" stroke="none"/><text fill="#000000" stroke="none" font-family="Arial" font-size="13px" font-style="normal" font-weight="normal" text-decoration="none" x="524.74267578125" y="207">VARCHAR</text></g></g><g transform="translate(-326,-94) scale(1,1)"><g><path fill="none" stroke="none"/><text fill="#000000" stroke="none" font-family="Arial" font-size="13px" font-style="normal" font-weight="normal" text-decoration="none" x="413" y="206.5"></text></g></g><g transform="translate(-326,-94) scale(1,1)"><g><path fill="none" stroke="none"/><text fill="#000000" stroke="none" font-family="Arial" font-size="13px" font-style="normal" font-weight="normal" text-decoration="none" x="413" y="222">FK</text></g></g><g transform="translate(-326,-94) scale(1,1)"><g><path fill="none" stroke="none"/><text fill="#000000" stroke="none" font-family="Arial" font-size="13px" font-style="normal" font-weight="normal" text-decoration="none" x="453.3291015625" y="222">Role_ID</text></g></g><g transform="translate(-326,-94) scale(1,1)"><g><path fill="none" stroke="none"/><text fill="#000000" stroke="none" font-family="Arial" font-size="13px" font-style="normal" font-weight="normal" text-decoration="none" x="524.74267578125" y="222">BIGINT</text></g></g><g transform="translate(-326,-94) scale(1,1)"><g><path fill="none" stroke="none"/><text fill="#000000" stroke="none" font-family="Arial" font-size="13px" font-style="normal" font-weight="normal" text-decoration="none" x="413" y="221.5"></text></g></g><g transform="translate(-326,-94) scale(1,1)"><g><path fill="none" stroke="none"/><text fill="#000000" stroke="none" font-family="Arial" font-size="13px" font-style="normal" font-weight="normal" text-decoration="none" x="413" y="237">FK,N</text></g></g><g transform="translate(-326,-94) scale(1,1)"><g><path fill="none" stroke="none"/><text fill="#000000" stroke="none" font-family="Arial" font-size="13px" font-style="normal" font-weight="normal" text-decoration="none" x="453.3291015625" y="237">User_ID</text></g></g><g transform="translate(-326,-94) scale(1,1)"><g><path fill="none" stroke="none"/><text fill="#000000" stroke="none" font-family="Arial" font-size="13px" font-style="normal" font-weight="normal" text-decoration="none" x="524.74267578125" y="237">BIGINT</text></g></g><g transform="translate(-326,-94) scale(1,1)"><g><path fill="none" stroke="none"/><text fill="#000000" stroke="none" font-family="Arial" font-size="13px" font-style="normal" font-weight="normal" text-decoration="none" x="413" y="236.5"></text></g></g><g transform="translate(-326,-94) scale(1,1)"><rect fill="#C0C0C0" stroke="none" x="423" y="383" width="146.7236328125" height="64" opacity="0.2"/></g><g transform="translate(-326,-94) scale(1,1)"><rect fill="#ffffff" stroke="none" x="416" y="376" width="146.7236328125" height="64"/></g><g transform="translate(-326,-94) scale(1,1)"><path fill="none" stroke="#000000" d="M 416 376 L 562.7236328125 376 L 562.7236328125 440 L 416 440 L 416 376 Z Z" stroke-miterlimit="10"/></g><g transform="translate(-326,-94) scale(1,1)"><path fill="none" stroke="#000000" d="M 416 399 L 562.7236328125 399" stroke-miterlimit="10"/></g><g transform="translate(-326,-94) scale(1,1)"><path fill="none" stroke="#000000" d="M 444.05908203125 399 L 444.05908203125 440" stroke-miterlimit="10"/></g><g transform="translate(-326,-94) scale(1,1)"><path fill="none" stroke="#000000" d="M 489.46630859375 399 L 489.46630859375 440" stroke-miterlimit="10"/></g><g transform="translate(-326,-94) scale(1,1)"><g><path fill="none" stroke="none"/><text fill="#000000" stroke="none" font-family="Arial" font-size="13px" font-style="normal" font-weight="bold" text-decoration="none" x="475.99365234375" y="393.5">Role</text></g></g><g transform="translate(-326,-94) scale(1,1)"><g><path fill="none" stroke="none"/><text fill="#000000" stroke="none" font-family="Arial" font-size="13px" font-style="normal" font-weight="normal" text-decoration="none" x="421" y="417">PK</text></g></g><g transform="translate(-326,-94) scale(1,1)"><g><path fill="none" stroke="none"/><text fill="#000000" stroke="none" font-family="Arial" font-size="13px" font-style="normal" font-weight="normal" text-decoration="none" x="449.05908203125" y="417">ID</text></g></g><g transform="translate(-326,-94) scale(1,1)"><g><path fill="none" stroke="none"/><text fill="#000000" stroke="none" font-family="Arial" font-size="13px" font-style="normal" font-weight="normal" text-decoration="none" x="494.46630859375" y="417">BIGINT</text></g></g><g transform="translate(-326,-94) scale(1,1)"><g><path fill="none" stroke="none"/><text fill="#000000" stroke="none" font-family="Arial" font-size="13px" font-style="normal" font-weight="normal" text-decoration="none" x="421" y="416.5"></text></g></g><g transform="translate(-326,-94) scale(1,1)"><g><path fill="none" stroke="none"/><text fill="#000000" stroke="none" font-family="Arial" font-size="13px" font-style="normal" font-weight="normal" text-decoration="none" x="421" y="432"></text></g></g><g transform="translate(-326,-94) scale(1,1)"><g><path fill="none" stroke="none"/><text fill="#000000" stroke="none" font-family="Arial" font-size="13px" font-style="normal" font-weight="normal" text-decoration="none" x="449.05908203125" y="432">Name</text></g></g><g transform="translate(-326,-94) scale(1,1)"><g><path fill="none" stroke="none"/><text fill="#000000" stroke="none" font-family="Arial" font-size="13px" font-style="normal" font-weight="normal" text-decoration="none" x="494.46630859375" y="432">VARCHAR</text></g></g><g transform="translate(-326,-94) scale(1,1)"><g><path fill="none" stroke="none"/><text fill="#000000" stroke="none" font-family="Arial" font-size="13px" font-style="normal" font-weight="normal" text-decoration="none" x="421" y="431.5"></text></g></g><g transform="translate(-326,-94) scale(1,1)"><rect fill="#C0C0C0" stroke="none" x="647" y="151" width="166.7060546875" height="105" opacity="0.2"/></g><g transform="translate(-326,-94) scale(1,1)"><rect fill="#ffffff" stroke="none" x="640" y="144" width="166.7060546875" height="105"/></g><g transform="translate(-326,-94) scale(1,1)"><path fill="none" stroke="#000000" d="M 640 144 L 806.7060546875 144 L 806.7060546875 249 L 640 249 L 640 144 Z Z" stroke-miterlimit="10"/></g><g transform="translate(-326,-94) scale(1,1)"><path fill="none" stroke="#000000" d="M 640 167 L 806.7060546875 167" stroke-miterlimit="10"/></g><g transform="translate(-326,-94) scale(1,1)"><path fill="none" stroke="#000000" d="M 668.05908203125 167 L 668.05908203125 249" stroke-miterlimit="10"/></g><g transform="translate(-326,-94) scale(1,1)"><path fill="none" stroke="#000000" d="M 727.1962890625 167 L 727.1962890625 249" stroke-miterlimit="10"/></g><g transform="translate(-326,-94) scale(1,1)"><g><path fill="none" stroke="none"/><text fill="#000000" stroke="none" font-family="Arial" font-size="13px" font-style="normal" font-weight="bold" text-decoration="none" x="684.69580078125" y="161.5">Bus Operator</text></g></g><g transform="translate(-326,-94) scale(1,1)"><g><path fill="none" stroke="none"/><text fill="#000000" stroke="none" font-family="Arial" font-size="13px" font-style="normal" font-weight="normal" text-decoration="none" x="645" y="185">PK</text></g></g><g transform="translate(-326,-94) scale(1,1)"><g><path fill="none" stroke="none"/><text fill="#000000" stroke="none" font-family="Arial" font-size="13px" font-style="normal" font-weight="normal" text-decoration="none" x="673.05908203125" y="185">ID</text></g></g><g transform="translate(-326,-94) scale(1,1)"><g><path fill="none" stroke="none"/><text fill="#000000" stroke="none" font-family="Arial" font-size="13px" font-style="normal" font-weight="normal" text-decoration="none" x="732.1962890625" y="185">BIGINT</text></g></g><g transform="translate(-326,-94) scale(1,1)"><g><path fill="none" stroke="none"/><text fill="#000000" stroke="none" font-family="Arial" font-size="13px" font-style="normal" font-weight="normal" text-decoration="none" x="645" y="184.5"></text></g></g><g transform="translate(-326,-94) scale(1,1)"><g><path fill="none" stroke="none"/><text fill="#000000" stroke="none" font-family="Arial" font-size="13px" font-style="normal" font-weight="normal" text-decoration="none" x="645" y="200"></text></g></g><g transform="translate(-326,-94) scale(1,1)"><g><path fill="none" stroke="none"/><text fill="#000000" stroke="none" font-family="Arial" font-size="13px" font-style="normal" font-weight="normal" text-decoration="none" x="673.05908203125" y="200">Name</text></g></g><g transform="translate(-326,-94) scale(1,1)"><g><path fill="none" stroke="none"/><text fill="#000000" stroke="none" font-family="Arial" font-size="13px" font-style="normal" font-weight="normal" text-decoration="none" x="732.1962890625" y="200">VARCHAR</text></g></g><g transform="translate(-326,-94) scale(1,1)"><g><path fill="none" stroke="none"/><text fill="#000000" stroke="none" font-family="Arial" font-size="13px" font-style="normal" font-weight="normal" text-decoration="none" x="645" y="199.5"></text></g></g><g transform="translate(-326,-94) scale(1,1)"><g><path fill="none" stroke="none"/><text fill="#000000" stroke="none" font-family="Arial" font-size="13px" font-style="normal" font-weight="normal" text-decoration="none" x="645" y="215">U</text></g></g><g transform="translate(-326,-94) scale(1,1)"><g><path fill="none" stroke="none"/><text fill="#000000" stroke="none" font-family="Arial" font-size="13px" font-style="normal" font-weight="normal" text-decoration="none" x="673.05908203125" y="215">Email</text></g></g><g transform="translate(-326,-94) scale(1,1)"><g><path fill="none" stroke="none"/><text fill="#000000" stroke="none" font-family="Arial" font-size="13px" font-style="normal" font-weight="normal" text-decoration="none" x="732.1962890625" y="215">VARCHAR</text></g></g><g transform="translate(-326,-94) scale(1,1)"><g><path fill="none" stroke="none"/><text fill="#000000" stroke="none" font-family="Arial" font-size="13px" font-style="normal" font-weight="normal" text-decoration="none" x="645" y="214.5"></text></g></g><g transform="translate(-326,-94) scale(1,1)"><g><path fill="none" stroke="none"/><text fill="#000000" stroke="none" font-family="Arial" font-size="13px" font-style="normal" font-weight="normal" text-decoration="none" x="645" y="230"></text></g></g><g transform="translate(-326,-94) scale(1,1)"><g><path fill="none" stroke="none"/><text fill="#000000" stroke="none" font-family="Arial" font-size="13px" font-style="normal" font-weight="normal" text-decoration="none" x="673.05908203125" y="230">Phone</text></g></g><g transform="translate(-326,-94) scale(1,1)"><g><path fill="none" stroke="none"/><text fill="#000000" stroke="none" font-family="Arial" font-size="13px" font-style="normal" font-weight="normal" text-decoration="none" x="732.1962890625" y="230">VARCHAR</text></g></g><g transform="translate(-326,-94) scale(1,1)"><g><path fill="none" stroke="none"/><text fill="#000000" stroke="none" font-family="Arial" font-size="13px" font-style="normal" font-weight="normal" text-decoration="none" x="645" y="229.5"></text></g></g><g transform="translate(-326,-94) scale(1,1)"><g><path fill="none" stroke="none"/><text fill="#000000" stroke="none" font-family="Arial" font-size="13px" font-style="normal" font-weight="normal" text-decoration="none" x="645" y="245">FK</text></g></g><g transform="translate(-326,-94) scale(1,1)"><g><path fill="none" stroke="none"/><text fill="#000000" stroke="none" font-family="Arial" font-size="13px" font-style="normal" font-weight="normal" text-decoration="none" x="673.05908203125" y="245">User_ID</text></g></g><g transform="translate(-326,-94) scale(1,1)"><g><path fill="none" stroke="none"/><text fill="#000000" stroke="none" font-family="Arial" font-size="13px" font-style="normal" font-weight="normal" text-decoration="none" x="732.1962890625" y="245">BIGINT</text></g></g><g transform="translate(-326,-94) scale(1,1)"><g><path fill="none" stroke="none"/><text fill="#000000" stroke="none" font-family="Arial" font-size="13px" font-style="normal" font-weight="normal" text-decoration="none" x="645" y="244.5"></text></g></g><g transform="translate(-326,-94) scale(1,1)"><path fill="none" stroke="#000000" d="M 593 200 L 640 200" stroke-miterlimit="10"/></g><g transform="translate(-326,-94) scale(1,1)"><path fill="none" stroke="#000000" d="M 626 200 L 640 207" stroke-miterlimit="10"/></g><g transform="translate(-326,-94) scale(1,1)"><path fill="none" stroke="#000000" d="M 626 200 L 640 193" stroke-miterlimit="10"/></g><g transform="translate(-326,-94) scale(1,1)"><path fill="#FFFFFF" stroke="none" d="M 611 200 C 611 196.1340064 614.1340064 193 618 193 C 621.8659936 193 625 196.1340064 625 200 C 625 203.8659936 621.8659936 207 618 207 C 614.1340064 207 611 203.8659936 611 200 Z"/></g><g transform="translate(-326,-94) scale(1,1)"><path fill="none" stroke="#000000" d="M 611 200 C 611 196.1340064 614.1340064 193 618 193 C 621.8659936 193 625 196.1340064 625 200 C 625 203.8659936 621.8659936 207 618 207 C 614.1340064 207 611 203.8659936 611 200 Z" stroke-miterlimit="10"/></g><g transform="translate(-326,-94) scale(1,1)"><path fill="none" stroke="#000000" d="M 600 193 L 600 207" stroke-miterlimit="10"/></g><g transform="translate(-326,-94) scale(1,1)"><path fill="none" stroke="#000000" d="M 607 193 L 607 207" stroke-miterlimit="10"/></g><g transform="translate(-326,-94) scale(1,1)"><g><path fill="none" stroke="none"/><text fill="#000000" stroke="none" font-family="Arial" font-size="13px" font-style="normal" font-weight="normal" text-decoration="none" x="617.5" y="191.5"></text></g></g><g transform="translate(-326,-94) scale(1,1)"><g><path fill="none" stroke="none"/><text fill="#000000" stroke="none" font-family="Arial" font-size="13px" font-style="normal" font-weight="normal" text-decoration="none" x="613.5" y="191.5"></text></g></g><g transform="translate(-326,-94) scale(1,1)"><path fill="none" stroke="#000000" d="M 481 136 L 481 116 L 336 116 L 336 200 L 408 200" stroke-miterlimit="10"/></g><g transform="translate(-326,-94) scale(1,1)"><path fill="none" stroke="#000000" d="M 394 200 L 408 207" stroke-miterlimit="10"/></g><g transform="translate(-326,-94) scale(1,1)"><path fill="none" stroke="#000000" d="M 394 200 L 408 193" stroke-miterlimit="10"/></g><g transform="translate(-326,-94) scale(1,1)"><path fill="#FFFFFF" stroke="none" d="M 379 200 C 379 196.1340064 382.1340064 193 386 193 C 389.8659936 193 393 196.1340064 393 200 C 393 203.8659936 389.8659936 207 386 207 C 382.1340064 207 379 203.8659936 379 200 Z"/></g><g transform="translate(-326,-94) scale(1,1)"><path fill="none" stroke="#000000" d="M 379 200 C 379 196.1340064 382.1340064 193 386 193 C 389.8659936 193 393 196.1340064 393 200 C 393 203.8659936 389.8659936 207 386 207 C 382.1340064 207 379 203.8659936 379 200 Z" stroke-miterlimit="10"/></g><g transform="translate(-326,-94) scale(1,1)"><path fill="none" stroke="#000000" d="M 474 129 L 488 129" stroke-miterlimit="10"/></g><g transform="translate(-326,-94) scale(1,1)"><path fill="none" stroke="#000000" d="M 474 122 L 488 122" stroke-miterlimit="10"/></g><g transform="translate(-326,-94) scale(1,1)"><g><path fill="none" stroke="none"/><text fill="#000000" stroke="none" font-family="Arial" font-size="13px" font-style="normal" font-weight="normal" text-decoration="none" x="465.5" y="116.5"></text></g></g><g transform="translate(-326,-94) scale(1,1)"><g><path fill="none" stroke="none"/><text fill="#000000" stroke="none" font-family="Arial" font-size="13px" font-style="normal" font-weight="normal" text-decoration="none" x="381.5" y="191.5"></text></g></g><g transform="translate(-326,-94) scale(1,1)"><path fill="none" stroke="#000000" d="M 487 376 L 487 256" stroke-miterlimit="10"/></g><g transform="translate(-326,-94) scale(1,1)"><path fill="none" stroke="#000000" d="M 487 270 L 494 256" stroke-miterlimit="10"/></g><g transform="translate(-326,-94) scale(1,1)"><path fill="none" stroke="#000000" d="M 487 270 L 480 256" stroke-miterlimit="10"/></g><g transform="translate(-326,-94) scale(1,1)"><path fill="#FFFFFF" stroke="none" d="M 480 278 C 480 274.1340064 483.1340064 271 487 271 C 490.8659936 271 494 274.1340064 494 278 C 494 281.8659936 490.8659936 285 487 285 C 483.1340064 285 480 281.8659936 480 278 Z"/></g><g transform="translate(-326,-94) scale(1,1)"><path fill="none" stroke="#000000" d="M 480 278 C 480 274.1340064 483.1340064 271 487 271 C 490.8659936 271 494 274.1340064 494 278 C 494 281.8659936 490.8659936 285 487 285 C 483.1340064 285 480 281.8659936 480 278 Z" stroke-miterlimit="10"/></g><g transform="translate(-326,-94) scale(1,1)"><path fill="none" stroke="#000000" d="M 480 369 L 494 369" stroke-miterlimit="10"/></g><g transform="translate(-326,-94) scale(1,1)"><path fill="none" stroke="#000000" d="M 480 362 L 494 362" stroke-miterlimit="10"/></g><g transform="translate(-326,-94) scale(1,1)"><g><path fill="none" stroke="none"/><text fill="#000000" stroke="none" font-family="Arial" font-size="13px" font-style="normal" font-weight="normal" text-decoration="none" x="471.5" y="356.5"></text></g></g><g transform="translate(-326,-94) scale(1,1)"><g><path fill="none" stroke="none"/><text fill="#000000" stroke="none" font-family="Arial" font-size="13px" font-style="normal" font-weight="normal" text-decoration="none" x="471.5" y="287.5"></text></g></g></g></svg>