<svg version="1.1" xmlns="http://www.w3.org/2000/svg" xmlns:xlink="http://www.w3.org/1999/xlink" width="863.8544921875" height="611"><defs/><g><g transform="translate(-78,-6) scale(1,1)"><rect fill="#C0C0C0" stroke="none" x="271" y="23" width="423" height="591" opacity="0.2"/></g><g transform="translate(-78,-6) scale(1,1)"><rect fill="#ffffff" stroke="none" x="264" y="16" width="423" height="591"/></g><g transform="translate(-78,-6) scale(1,1)"><path fill="none" stroke="#000000" d="M 264 16 L 687 16 L 687 607 L 264 607 L 264 16 Z Z" stroke-miterlimit="10"/></g><g transform="translate(-78,-6) scale(1,1)"><g><path fill="none" stroke="none"/><text fill="#000000" stroke="none" font-family="Arial" font-size="13px" font-style="normal" font-weight="bold" text-decoration="none" x="399.515380859375" y="35.5">Bus Ticket Admin Console</text></g></g><g transform="translate(-78,-6) scale(1,1)"><path fill="#ffffff" stroke="none" d="M 112.40935031960228 105.68 C 112.40935031960228 100.886167936 116.29519264454774 97 121.088623046875 97 C 125.88205344920226 97 129.76789577414772 100.886167936 129.76789577414772 105.68 C 129.76789577414772 110.473832064 125.88205344920226 114.36 121.088623046875 114.36 C 116.29519264454774 114.36 112.40935031960228 110.473832064 112.40935031960228 105.68 Z"/></g><g transform="translate(-78,-6) scale(1,1)"><path fill="none" stroke="#000000" d="M 112.40935031960228 105.68 C 112.40935031960228 100.886167936 116.29519264454774 97 121.088623046875 97 C 125.88205344920226 97 129.76789577414772 100.886167936 129.76789577414772 105.68 C 129.76789577414772 110.473832064 125.88205344920226 114.36 121.088623046875 114.36 C 116.29519264454774 114.36 112.40935031960228 110.473832064 112.40935031960228 105.68 Z" stroke-miterlimit="10"/></g><g transform="translate(-78,-6) scale(1,1)"><path fill="none" stroke="#000000" d="M 121.088623046875 114.36 L 121.088623046875 131.64" stroke-miterlimit="10"/></g><g transform="translate(-78,-6) scale(1,1)"><path fill="none" stroke="#000000" d="M 111.89880486505683 120.84 L 130.27844122869317 120.84" stroke-miterlimit="10"/></g><g transform="translate(-78,-6) scale(1,1)"><path fill="none" stroke="#000000" d="M 121.088623046875 131.64 L 108.32498668323865 149" stroke-miterlimit="10"/></g><g transform="translate(-78,-6) scale(1,1)"><path fill="none" stroke="#000000" d="M 121.088623046875 131.64 L 133.85225941051135 149" stroke-miterlimit="10"/></g><g transform="translate(-78,-6) scale(1,1)"><g><path fill="none" stroke="none"/><text fill="#000000" stroke="none" font-family="Arial" font-size="13px" font-style="normal" font-weight="bold" text-decoration="none" x="102.66455078125" y="169.5">Admin</text></g></g><g transform="translate(-78,-6) scale(1,1)"><path fill="#C0C0C0" stroke="none" d="M 391 408 C 391 398.6111584 428.6080768 391 475 391 C 521.3919232 391 559 398.6111584 559 408 C 559 417.3888416 521.3919232 425 475 425 C 428.6080768 425 391 417.3888416 391 408 Z" opacity="0.2"/></g><g transform="translate(-78,-6) scale(1,1)"><path fill="#ffffff" stroke="none" d="M 384 401 C 384 391.6111584 421.6080768 384 468 384 C 514.3919232 384 552 391.6111584 552 401 C 552 410.3888416 514.3919232 418 468 418 C 421.6080768 418 384 410.3888416 384 401 Z"/></g><g transform="translate(-78,-6) scale(1,1)"><path fill="none" stroke="#000000" d="M 384 401 C 384 391.6111584 421.6080768 384 468 384 C 514.3919232 384 552 391.6111584 552 401 C 552 410.3888416 514.3919232 418 468 418 C 421.6080768 418 384 410.3888416 384 401 Z" stroke-miterlimit="10"/></g><g transform="translate(-78,-6) scale(1,1)"><g><path fill="none" stroke="none"/><text fill="#000000" stroke="none" font-family="Arial" font-size="13px" font-style="normal" font-weight="bold" text-decoration="none" x="417.06005859375" y="408">City Management</text></g></g><g transform="translate(-78,-6) scale(1,1)"><path fill="#ffffff" stroke="none" d="M 111.99162571022728 361.68 C 111.99162571022728 356.886167936 115.87746803517274 353 120.6708984375 353 C 125.46432883982726 353 129.35017116477272 356.886167936 129.35017116477272 361.68 C 129.35017116477272 366.473832064 125.46432883982726 370.36 120.6708984375 370.36 C 115.87746803517274 370.36 111.99162571022728 366.473832064 111.99162571022728 361.68 Z"/></g><g transform="translate(-78,-6) scale(1,1)"><path fill="none" stroke="#000000" d="M 111.99162571022728 361.68 C 111.99162571022728 356.886167936 115.87746803517274 353 120.6708984375 353 C 125.46432883982726 353 129.35017116477272 356.886167936 129.35017116477272 361.68 C 129.35017116477272 366.473832064 125.46432883982726 370.36 120.6708984375 370.36 C 115.87746803517274 370.36 111.99162571022728 366.473832064 111.99162571022728 361.68 Z" stroke-miterlimit="10"/></g><g transform="translate(-78,-6) scale(1,1)"><path fill="none" stroke="#000000" d="M 120.6708984375 370.36 L 120.6708984375 387.64" stroke-miterlimit="10"/></g><g transform="translate(-78,-6) scale(1,1)"><path fill="none" stroke="#000000" d="M 111.48108025568183 376.84 L 129.86071661931817 376.84" stroke-miterlimit="10"/></g><g transform="translate(-78,-6) scale(1,1)"><path fill="none" stroke="#000000" d="M 120.6708984375 387.64 L 107.90726207386365 405" stroke-miterlimit="10"/></g><g transform="translate(-78,-6) scale(1,1)"><path fill="none" stroke="#000000" d="M 120.6708984375 387.64 L 133.43453480113635 405" stroke-miterlimit="10"/></g><g transform="translate(-78,-6) scale(1,1)"><g><path fill="none" stroke="none"/><text fill="#000000" stroke="none" font-family="Arial" font-size="13px" font-style="normal" font-weight="bold" text-decoration="none" x="94.2900390625" y="425.5">Standard</text></g></g><g transform="translate(-78,-6) scale(1,1)"><path fill="#C0C0C0" stroke="none" d="M 383 104 C 383 94.6111584 422.3989376 87 471 87 C 519.6010624 87 559 94.6111584 559 104 C 559 113.3888416 519.6010624 121 471 121 C 422.3989376 121 383 113.3888416 383 104 Z" opacity="0.2"/></g><g transform="translate(-78,-6) scale(1,1)"><path fill="#ffffff" stroke="none" d="M 376 97 C 376 87.6111584 415.3989376 80 464 80 C 512.6010624 80 552 87.6111584 552 97 C 552 106.3888416 512.6010624 114 464 114 C 415.3989376 114 376 106.3888416 376 97 Z"/></g><g transform="translate(-78,-6) scale(1,1)"><path fill="none" stroke="#000000" d="M 376 97 C 376 87.6111584 415.3989376 80 464 80 C 512.6010624 80 552 87.6111584 552 97 C 552 106.3888416 512.6010624 114 464 114 C 415.3989376 114 376 106.3888416 376 97 Z" stroke-miterlimit="10"/></g><g transform="translate(-78,-6) scale(1,1)"><g><path fill="none" stroke="none"/><text fill="#000000" stroke="none" font-family="Arial" font-size="13px" font-style="normal" font-weight="bold" text-decoration="none" x="410.530517578125" y="104">User Management</text></g></g><g transform="translate(-78,-6) scale(1,1)"><path fill="#C0C0C0" stroke="none" d="M 375 544 C 375 534.6111584 420.6669504 527 477 527 C 533.3330496 527 579 534.6111584 579 544 C 579 553.3888416 533.3330496 561 477 561 C 420.6669504 561 375 553.3888416 375 544 Z" opacity="0.2"/></g><g transform="translate(-78,-6) scale(1,1)"><path fill="#ffffff" stroke="none" d="M 368 537 C 368 527.6111584 413.6669504 520 470 520 C 526.3330496 520 572 527.6111584 572 537 C 572 546.3888416 526.3330496 554 470 554 C 413.6669504 554 368 546.3888416 368 537 Z"/></g><g transform="translate(-78,-6) scale(1,1)"><path fill="none" stroke="#000000" d="M 368 537 C 368 527.6111584 413.6669504 520 470 520 C 526.3330496 520 572 527.6111584 572 537 C 572 546.3888416 526.3330496 554 470 554 C 413.6669504 554 368 546.3888416 368 537 Z" stroke-miterlimit="10"/></g><g transform="translate(-78,-6) scale(1,1)"><g><path fill="none" stroke="none"/><text fill="#000000" stroke="none" font-family="Arial" font-size="13px" font-style="normal" font-weight="bold" text-decoration="none" x="406.7646484375" y="544">Booking Management</text></g></g><g transform="translate(-78,-6) scale(1,1)"><path fill="#C0C0C0" stroke="none" d="M 279 160 C 279 150.6111584 354.8877264 143 448.5 143 C 542.1122736 143 618 150.6111584 618 160 C 618 169.3888416 542.1122736 177 448.5 177 C 354.8877264 177 279 169.3888416 279 160 Z" opacity="0.2"/></g><g transform="translate(-78,-6) scale(1,1)"><path fill="#ffffff" stroke="none" d="M 272 153 C 272 143.6111584 347.8877264 136 441.5 136 C 535.1122736 136 611 143.6111584 611 153 C 611 162.3888416 535.1122736 170 441.5 170 C 347.8877264 170 272 162.3888416 272 153 Z"/></g><g transform="translate(-78,-6) scale(1,1)"><path fill="none" stroke="#000000" d="M 272 153 C 272 143.6111584 347.8877264 136 441.5 136 C 535.1122736 136 611 143.6111584 611 153 C 611 162.3888416 535.1122736 170 441.5 170 C 347.8877264 170 272 162.3888416 272 153 Z" stroke-miterlimit="10"/></g><g transform="translate(-78,-6) scale(1,1)"><g><path fill="none" stroke="none"/><text fill="#000000" stroke="none" font-family="Arial" font-size="13px" font-style="normal" font-weight="bold" text-decoration="none" x="347.5673828125" y="160">Bus Operator User Management</text></g></g><g transform="translate(-78,-6) scale(1,1)"><path fill="#C0C0C0" stroke="none" d="M 399 352 C 399 342.6111584 435.936504 335 481.5 335 C 527.063496 335 564 342.6111584 564 352 C 564 361.3888416 527.063496 369 481.5 369 C 435.936504 369 399 361.3888416 399 352 Z" opacity="0.2"/></g><g transform="translate(-78,-6) scale(1,1)"><path fill="#ffffff" stroke="none" d="M 392 345 C 392 335.6111584 428.936504 328 474.5 328 C 520.063496 328 557 335.6111584 557 345 C 557 354.3888416 520.063496 362 474.5 362 C 428.936504 362 392 354.3888416 392 345 Z"/></g><g transform="translate(-78,-6) scale(1,1)"><path fill="none" stroke="#000000" d="M 392 345 C 392 335.6111584 428.936504 328 474.5 328 C 520.063496 328 557 335.6111584 557 345 C 557 354.3888416 520.063496 362 474.5 362 C 428.936504 362 392 354.3888416 392 345 Z" stroke-miterlimit="10"/></g><g transform="translate(-78,-6) scale(1,1)"><g><path fill="none" stroke="none"/><text fill="#000000" stroke="none" font-family="Arial" font-size="13px" font-style="normal" font-weight="bold" text-decoration="none" x="423.5537109375" y="352">Bus Management</text></g></g><g transform="translate(-78,-6) scale(1,1)"><path fill="#C0C0C0" stroke="none" d="M 391 224 C 391 214.6111584 431.7420832 207 482 207 C 532.2579168 207 573 214.6111584 573 224 C 573 233.3888416 532.2579168 241 482 241 C 431.7420832 241 391 233.3888416 391 224 Z" opacity="0.2"/></g><g transform="translate(-78,-6) scale(1,1)"><path fill="#ffffff" stroke="none" d="M 384 217 C 384 207.6111584 424.7420832 200 475 200 C 525.2579168 200 566 207.6111584 566 217 C 566 226.3888416 525.2579168 234 475 234 C 424.7420832 234 384 226.3888416 384 217 Z"/></g><g transform="translate(-78,-6) scale(1,1)"><path fill="none" stroke="#000000" d="M 384 217 C 384 207.6111584 424.7420832 200 475 200 C 525.2579168 200 566 207.6111584 566 217 C 566 226.3888416 525.2579168 234 475 234 C 424.7420832 234 384 226.3888416 384 217 Z" stroke-miterlimit="10"/></g><g transform="translate(-78,-6) scale(1,1)"><g><path fill="none" stroke="none"/><text fill="#000000" stroke="none" font-family="Arial" font-size="13px" font-style="normal" font-weight="bold" text-decoration="none" x="417.9091796875" y="224">Route Management</text></g></g><g transform="translate(-78,-6) scale(1,1)"><path fill="#C0C0C0" stroke="none" d="M 375 296 C 375 286.6111584 422.4578112 279 481 279 C 539.5421888 279 587 286.6111584 587 296 C 587 305.3888416 539.5421888 313 481 313 C 422.4578112 313 375 305.3888416 375 296 Z" opacity="0.2"/></g><g transform="translate(-78,-6) scale(1,1)"><path fill="#ffffff" stroke="none" d="M 368 289 C 368 279.6111584 415.4578112 272 474 272 C 532.5421888 272 580 279.6111584 580 289 C 580 298.3888416 532.5421888 306 474 306 C 415.4578112 306 368 298.3888416 368 289 Z"/></g><g transform="translate(-78,-6) scale(1,1)"><path fill="none" stroke="#000000" d="M 368 289 C 368 279.6111584 415.4578112 272 474 272 C 532.5421888 272 580 279.6111584 580 289 C 580 298.3888416 532.5421888 306 474 306 C 415.4578112 306 368 298.3888416 368 289 Z" stroke-miterlimit="10"/></g><g transform="translate(-78,-6) scale(1,1)"><g><path fill="none" stroke="none"/><text fill="#000000" stroke="none" font-family="Arial" font-size="13px" font-style="normal" font-weight="bold" text-decoration="none" x="407.156005859375" y="296">Bus Type Management</text></g></g><g transform="translate(-78,-6) scale(1,1)"><path fill="#C0C0C0" stroke="none" d="M 367 464 C 367 454.6111584 414.4578112 447 473 447 C 531.5421888 447 579 454.6111584 579 464 C 579 473.3888416 531.5421888 481 473 481 C 414.4578112 481 367 473.3888416 367 464 Z" opacity="0.2"/></g><g transform="translate(-78,-6) scale(1,1)"><path fill="#ffffff" stroke="none" d="M 360 457 C 360 447.6111584 407.4578112 440 466 440 C 524.5421888 440 572 447.6111584 572 457 C 572 466.3888416 524.5421888 474 466 474 C 407.4578112 474 360 466.3888416 360 457 Z"/></g><g transform="translate(-78,-6) scale(1,1)"><path fill="none" stroke="#000000" d="M 360 457 C 360 447.6111584 407.4578112 440 466 440 C 524.5421888 440 572 447.6111584 572 457 C 572 466.3888416 524.5421888 474 466 474 C 407.4578112 474 360 466.3888416 360 457 Z" stroke-miterlimit="10"/></g><g transform="translate(-78,-6) scale(1,1)"><g><path fill="none" stroke="none"/><text fill="#000000" stroke="none" font-family="Arial" font-size="13px" font-style="normal" font-weight="bold" text-decoration="none" x="399.149658203125" y="464">Schedule Management</text></g></g><g transform="translate(-78,-6) scale(1,1)"><path fill="#ffffff" stroke="none" d="M 861.2975339133523 137.68 C 861.2975339133523 132.886167936 865.1833762382977 129 869.976806640625 129 C 874.7702370429523 129 878.6560793678977 132.886167936 878.6560793678977 137.68 C 878.6560793678977 142.47383206400002 874.7702370429523 146.36 869.976806640625 146.36 C 865.1833762382977 146.36 861.2975339133523 142.47383206400002 861.2975339133523 137.68 Z"/></g><g transform="translate(-78,-6) scale(1,1)"><path fill="none" stroke="#000000" d="M 861.2975339133523 137.68 C 861.2975339133523 132.886167936 865.1833762382977 129 869.976806640625 129 C 874.7702370429523 129 878.6560793678977 132.886167936 878.6560793678977 137.68 C 878.6560793678977 142.47383206400002 874.7702370429523 146.36 869.976806640625 146.36 C 865.1833762382977 146.36 861.2975339133523 142.47383206400002 861.2975339133523 137.68 Z" stroke-miterlimit="10"/></g><g transform="translate(-78,-6) scale(1,1)"><path fill="none" stroke="#000000" d="M 869.976806640625 146.36 L 869.976806640625 163.64" stroke-miterlimit="10"/></g><g transform="translate(-78,-6) scale(1,1)"><path fill="none" stroke="#000000" d="M 860.7869884588068 152.84 L 879.1666248224432 152.84" stroke-miterlimit="10"/></g><g transform="translate(-78,-6) scale(1,1)"><path fill="none" stroke="#000000" d="M 869.976806640625 163.64 L 857.2131702769886 181" stroke-miterlimit="10"/></g><g transform="translate(-78,-6) scale(1,1)"><path fill="none" stroke="#000000" d="M 869.976806640625 163.64 L 882.7404430042614 181" stroke-miterlimit="10"/></g><g transform="translate(-78,-6) scale(1,1)"><g><path fill="none" stroke="none"/><text fill="#000000" stroke="none" font-family="Arial" font-size="13px" font-style="normal" font-weight="bold" text-decoration="none" x="824.095947265625" y="201.5">Operator Admin</text></g></g><g transform="translate(-78,-6) scale(1,1)"><path fill="#ffffff" stroke="none" d="M 857.55124609375 325.59000000000003 C 857.55124609375 318.636734368 863.09216940895 313 869.92724609375 313 C 876.76232277855 313 882.30324609375 318.636734368 882.30324609375 325.59000000000003 C 882.30324609375 332.54326563200004 876.76232277855 338.18 869.92724609375 338.18 C 863.09216940895 338.18 857.55124609375 332.54326563200004 857.55124609375 325.59000000000003 Z"/></g><g transform="translate(-78,-6) scale(1,1)"><path fill="none" stroke="#000000" d="M 857.55124609375 325.59000000000003 C 857.55124609375 318.636734368 863.09216940895 313 869.92724609375 313 C 876.76232277855 313 882.30324609375 318.636734368 882.30324609375 325.59000000000003 C 882.30324609375 332.54326563200004 876.76232277855 338.18 869.92724609375 338.18 C 863.09216940895 338.18 857.55124609375 332.54326563200004 857.55124609375 325.59000000000003 Z" stroke-miterlimit="10"/></g><g transform="translate(-78,-6) scale(1,1)"><path fill="none" stroke="#000000" d="M 869.92724609375 338.18 L 869.92724609375 362.82" stroke-miterlimit="10"/></g><g transform="translate(-78,-6) scale(1,1)"><path fill="none" stroke="#000000" d="M 856.82324609375 347.42 L 883.03124609375 347.42" stroke-miterlimit="10"/></g><g transform="translate(-78,-6) scale(1,1)"><path fill="none" stroke="#000000" d="M 869.92724609375 362.82 L 851.72724609375 388" stroke-miterlimit="10"/></g><g transform="translate(-78,-6) scale(1,1)"><path fill="none" stroke="#000000" d="M 869.92724609375 362.82 L 888.12724609375 388" stroke-miterlimit="10"/></g><g transform="translate(-78,-6) scale(1,1)"><g><path fill="none" stroke="none"/><text fill="#000000" stroke="none" font-family="Arial" font-size="13px" font-style="normal" font-weight="bold" text-decoration="none" x="816.089599609375" y="408.5">Operator Standard</text></g></g><g transform="translate(-78,-6) scale(1,1)"><path fill="#ffffff" stroke="none" d="M 847.5211667258523 489.68 C 847.5211667258523 484.886167936 851.4070090507977 481 856.200439453125 481 C 860.9938698554523 481 864.8797121803977 484.886167936 864.8797121803977 489.68 C 864.8797121803977 494.473832064 860.9938698554523 498.36 856.200439453125 498.36 C 851.4070090507977 498.36 847.5211667258523 494.473832064 847.5211667258523 489.68 Z"/></g><g transform="translate(-78,-6) scale(1,1)"><path fill="none" stroke="#000000" d="M 847.5211667258523 489.68 C 847.5211667258523 484.886167936 851.4070090507977 481 856.200439453125 481 C 860.9938698554523 481 864.8797121803977 484.886167936 864.8797121803977 489.68 C 864.8797121803977 494.473832064 860.9938698554523 498.36 856.200439453125 498.36 C 851.4070090507977 498.36 847.5211667258523 494.473832064 847.5211667258523 489.68 Z" stroke-miterlimit="10"/></g><g transform="translate(-78,-6) scale(1,1)"><path fill="none" stroke="#000000" d="M 856.200439453125 498.36 L 856.200439453125 515.64" stroke-miterlimit="10"/></g><g transform="translate(-78,-6) scale(1,1)"><path fill="none" stroke="#000000" d="M 847.0106212713068 504.84 L 865.3902576349432 504.84" stroke-miterlimit="10"/></g><g transform="translate(-78,-6) scale(1,1)"><path fill="none" stroke="#000000" d="M 856.200439453125 515.64 L 843.4368030894886 533" stroke-miterlimit="10"/></g><g transform="translate(-78,-6) scale(1,1)"><path fill="none" stroke="#000000" d="M 856.200439453125 515.64 L 868.9640758167614 533" stroke-miterlimit="10"/></g><g transform="translate(-78,-6) scale(1,1)"><g><path fill="none" stroke="none"/><text fill="#000000" stroke="none" font-family="Arial" font-size="13px" font-style="normal" font-weight="bold" text-decoration="none" x="815.492919921875" y="553.5">Operator Staff</text></g></g><g transform="translate(-78,-6) scale(1,1)"><path fill="none" stroke="#000000" d="M 807 521 L 573 532" stroke-miterlimit="10"/></g><g transform="translate(-78,-6) scale(1,1)"><path fill="none" stroke="#000000" d="M 807 390 L 511 519" stroke-miterlimit="10"/></g><g transform="translate(-78,-6) scale(1,1)"><path fill="none" stroke="#000000" d="M 807 377 L 543 439" stroke-miterlimit="10"/></g><g transform="translate(-78,-6) scale(1,1)"><path fill="none" stroke="#000000" d="M 807 360 L 558 349" stroke-miterlimit="10"/></g><g transform="translate(-78,-6) scale(1,1)"><path fill="none" stroke="#000000" d="M 807 369 L 553 393" stroke-miterlimit="10"/></g><g transform="translate(-78,-6) scale(1,1)"><path fill="none" stroke="#000000" d="M 807 351 L 570 307" stroke-miterlimit="10"/></g><g transform="translate(-78,-6) scale(1,1)"><path fill="none" stroke="#000000" d="M 807 340 L 524 235" stroke-miterlimit="10"/></g><g transform="translate(-78,-6) scale(1,1)"><path fill="none" stroke="#000000" d="M 815 165 L 612 159" stroke-miterlimit="10"/></g><g transform="translate(-78,-6) scale(1,1)"><path fill="none" stroke="#000000" d="M 807 521 L 573 532" stroke-miterlimit="10"/></g><g transform="translate(-78,-6) scale(1,1)"><path fill="none" stroke="#000000" d="M 154 405 L 427 519" stroke-miterlimit="10"/></g><g transform="translate(-78,-6) scale(1,1)"><path fill="none" stroke="#000000" d="M 154 398 L 372 439" stroke-miterlimit="10"/></g><g transform="translate(-78,-6) scale(1,1)"><path fill="none" stroke="#000000" d="M 154 392 L 383 399" stroke-miterlimit="10"/></g><g transform="translate(-78,-6) scale(1,1)"><path fill="none" stroke="#000000" d="M 154 387 L 391 356" stroke-miterlimit="10"/></g><g transform="translate(-78,-6) scale(1,1)"><path fill="none" stroke="#000000" d="M 154 381 L 412 307" stroke-miterlimit="10"/></g><g transform="translate(-78,-6) scale(1,1)"><path fill="none" stroke="#000000" d="M 154 374 L 438 235" stroke-miterlimit="10"/></g><g transform="translate(-78,-6) scale(1,1)"><path fill="none" stroke="#000000" d="M 154 366 L 417 171" stroke-miterlimit="10"/></g><g transform="translate(-78,-6) scale(1,1)"><path fill="none" stroke="#000000" d="M 147 132 L 375 107" stroke-miterlimit="10"/></g><g transform="translate(-78,-6) scale(1,1)"><path fill="none" stroke="#000000" d="M 121 176 L 120 351" stroke-miterlimit="10"/></g><g transform="translate(-78,-6) scale(1,1)"><path fill="#FFFFFF" stroke="none" d="M 111.69724489756253 330.62687413014515 L 120 351 L 128.5350410210767 330.7230901079938"/></g><g transform="translate(-78,-6) scale(1,1)"><path fill="none" stroke="#000000" d="M 111.69724489756253 330.62687413014515 L 120 351 L 128.5350410210767 330.7230901079938 L 111.69724489756253 330.62687413014515" stroke-miterlimit="10"/></g><g transform="translate(-78,-6) scale(1,1)"><path fill="none" stroke="#000000" d="M 869 208 L 869 311" stroke-miterlimit="10"/></g><g transform="translate(-78,-6) scale(1,1)"><path fill="#FFFFFF" stroke="none" d="M 860.580964487968 290.6746502847517 L 869 311 L 877.419035512032 290.6746502847517"/></g><g transform="translate(-78,-6) scale(1,1)"><path fill="none" stroke="#000000" d="M 860.580964487968 290.6746502847517 L 869 311 L 877.419035512032 290.6746502847517 L 860.580964487968 290.6746502847517" stroke-miterlimit="10"/></g></g></svg>